<svg width="40" height="40" viewBox="0 0 40 40" fill="none" xmlns="http://www.w3.org/2000/svg">
<path d="M9.28479 13.1449C8.80729 9.9999 11.0248 7.1749 14.4123 6.1399C15.0134 5.95611 15.662 6.00843 16.2259 6.2862C16.7898 6.56397 17.2266 7.0463 17.4473 7.6349L18.5348 10.5349C18.7099 11.0014 18.7415 11.5096 18.6257 11.9943C18.5099 12.4789 18.2519 12.9179 17.8848 13.2549L14.6498 16.2174C14.4903 16.3637 14.3715 16.5489 14.3049 16.7548C14.2383 16.9607 14.2262 17.1804 14.2698 17.3924L14.2998 17.5224L14.3773 17.8474C14.7796 19.4265 15.3926 20.9443 16.1998 22.3599C17.0791 23.8641 18.1703 25.234 19.4398 26.4274L19.5398 26.5174C19.7013 26.6608 19.8972 26.7598 20.1084 26.8049C20.3195 26.8501 20.5388 26.8397 20.7448 26.7749L24.9273 25.4574C25.4026 25.3082 25.9117 25.3043 26.3892 25.4464C26.8667 25.5885 27.2909 25.8701 27.6073 26.2549L29.5873 28.6574C30.4123 29.6574 30.3123 31.1274 29.3648 32.0099C26.7723 34.4274 23.2073 34.9224 20.7273 32.9299C17.6874 30.4778 15.1247 27.4871 13.1673 24.1074C11.194 20.7302 9.87595 17.011 9.28229 13.1449H9.28479ZM16.8923 17.5574L19.5723 15.0974C20.3069 14.4237 20.8234 13.5459 21.0555 12.5766C21.2875 11.6073 21.2246 10.5907 20.8748 9.6574L19.7898 6.7574C19.3457 5.57302 18.4666 4.60255 17.3318 4.04375C16.197 3.48494 14.8919 3.37986 13.6823 3.7499C9.47479 5.0374 6.09729 8.8099 6.81229 13.5224C7.31229 16.8124 8.46479 20.9974 11.0073 25.3674C13.1191 29.0117 15.8834 32.2362 19.1623 34.8799C22.8823 37.8674 27.8473 36.8474 31.0723 33.8424C31.9951 32.9832 32.5552 31.8042 32.6384 30.5461C32.7215 29.288 32.3215 28.0456 31.5198 27.0724L29.5398 24.6674C28.9064 23.8986 28.0578 23.3365 27.1028 23.0532C26.1478 22.7699 25.13 22.7784 24.1798 23.0774L20.7073 24.1699C19.8107 23.2455 19.0254 22.2193 18.3673 21.1124C17.7316 19.9933 17.2362 18.8001 16.8923 17.5599V17.5574Z" fill="white"/>
</svg>
