<svg width="35" height="35" viewBox="0 0 35 35" fill="none" xmlns="http://www.w3.org/2000/svg">
<path d="M24.0392 17.4649L33.0094 9.67159V25.1693L24.0392 17.4649ZM12.4804 18.7847L15.6304 21.5191C16.1248 21.9391 16.7694 22.1928 17.4738 22.1928H17.4985H17.4971H17.5175C18.2233 22.1928 18.8679 21.9376 19.3681 21.5147L19.3638 21.5176L22.5138 18.7833L32.0892 27.0068H2.90938L12.4804 18.7847ZM2.89625 7.82388H32.1067L18.076 20.0097C17.9183 20.1345 17.723 20.2023 17.5219 20.2022H17.5015H17.5029H17.4825C17.2807 20.2025 17.0847 20.1341 16.9269 20.0083L16.9283 20.0097L2.89625 7.82388ZM1.99063 9.67013L10.9594 17.4635L1.99063 25.1635V9.67013ZM33.4906 6.11034C33.1406 5.93534 32.7294 5.83325 32.2933 5.83325H2.71104C2.28836 5.83335 1.87149 5.9317 1.49333 6.12054L1.50937 6.11325C1.05667 6.33654 0.675424 6.68197 0.408704 7.11053C0.141984 7.53908 0.00041905 8.03368 0 8.53846L0 26.2893C0.000772047 27.0077 0.286493 27.6964 0.794471 28.2044C1.30245 28.7124 1.99119 28.9981 2.70958 28.9989H32.289C33.0074 28.9981 33.6961 28.7124 34.2041 28.2044C34.7121 27.6964 34.9978 27.0077 34.9985 26.2893V8.53846C34.9985 7.47825 34.3875 6.5595 33.4979 6.11763L33.4819 6.11034H33.4906Z" fill="white"/>
</svg>
