<svg width="80" height="80" viewBox="0 0 80 80" fill="none" xmlns="http://www.w3.org/2000/svg">
<circle cx="40" cy="40" r="38.5" fill="#D2EFFA" stroke="#00A3A3" stroke-width="3"/>
<g clip-path="url(#clip0_172_5007)">
<path d="M59.3383 20H43.3617V23.2633H44.5783V53.3217C44.5783 55.1176 45.2918 56.84 46.5617 58.11C47.8316 59.3799 49.554 60.0933 51.35 60.0933C53.146 60.0933 54.8684 59.3799 56.1383 58.11C57.4082 56.84 58.1217 55.1176 58.1217 53.3217V53.2217V53.2267V23.2633H59.3383V20ZM56.1217 28.0733H46.5633V23.2533H56.125L56.1217 28.0733ZM37.9767 20H22V23.2633H23.2167V53.3217C23.2167 55.1176 23.9301 56.84 25.2 58.11C26.47 59.3799 28.1924 60.0933 29.9883 60.0933C31.7843 60.0933 33.5067 59.3799 34.7766 58.11C36.0466 56.84 36.76 55.1176 36.76 53.3217V53.2217V53.2267V23.2633H37.9767V20ZM34.7767 53.23C34.7316 54.4669 34.2088 55.6381 33.3181 56.4976C32.4275 57.3571 31.2384 57.8379 30.0007 57.839C28.763 57.8401 27.573 57.3614 26.6809 56.5034C25.7888 55.6455 25.2639 54.4752 25.2167 53.2383V23.2683H34.7783L34.7767 53.23Z" fill="#00A3A3"/>
</g>
<defs>
<clipPath id="clip0_172_5007">
<rect width="36.6667" height="40" fill="white" transform="translate(22 20)"/>
</clipPath>
</defs>
</svg>
