<svg width="80" height="80" viewBox="0 0 80 80" fill="none" xmlns="http://www.w3.org/2000/svg">
<circle cx="40" cy="40" r="38.5" fill="#D2EFFA" stroke="#00A3A3" stroke-width="3"/>
<path d="M35.3332 32H32.9332C34.9332 30.2666 37.3332 29.3333 39.9998 29.3333C40.3998 29.3333 40.7998 29.3333 41.1998 29.4666C41.8665 29.6 42.5332 29.0666 42.6665 28.2666C42.7998 27.6 42.2665 26.9333 41.4665 26.8C40.9332 26.6666 40.5332 26.6666 39.9998 26.6666C36.7998 26.6666 33.7332 27.8666 31.3332 29.8666V28C31.3332 27.2 30.7998 26.6666 29.9998 26.6666C29.1998 26.6666 28.6665 27.2 28.6665 28V33.3333C28.6665 34.1333 29.1998 34.6666 29.9998 34.6666H35.3332C36.1332 34.6666 36.6665 34.1333 36.6665 33.3333C36.6665 32.5333 36.1332 32 35.3332 32ZM33.3332 43.3333C32.5332 43.3333 31.9998 43.8666 31.9998 44.6666V47.0666C30.2665 45.0666 29.3332 42.6666 29.3332 40C29.3332 39.6 29.3332 39.2 29.4665 38.8C29.5998 38.1333 29.0665 37.4666 28.2665 37.3333C27.5998 37.2 26.9332 37.7333 26.7998 38.5333C26.6665 39.0666 26.6665 39.4666 26.6665 40C26.6665 43.2 27.8665 46.2666 29.8665 48.6666H27.9998C27.1998 48.6666 26.6665 49.2 26.6665 50C26.6665 50.8 27.1998 51.3333 27.9998 51.3333H33.3332C33.7332 51.3333 34.1332 51.0666 34.3998 50.8C34.3998 50.6666 34.5332 50.5333 34.5332 50.4V44.6666C34.6665 43.8666 34.1332 43.3333 33.3332 43.3333ZM51.9998 31.3333C52.7998 31.3333 53.3332 30.8 53.3332 30C53.3332 29.2 52.7998 28.6666 51.9998 28.6666H46.3998C46.2665 28.6666 46.1332 28.8 45.9998 28.8C45.8665 28.9333 45.7332 28.9333 45.7332 29.0666C45.7332 29.2 45.5998 29.3333 45.5998 29.3333V35.0666C45.5998 35.8666 46.1332 36.4 46.9332 36.4C47.7332 36.4 48.2665 35.8666 48.2665 35.0666V32.9333C49.9998 34.8 50.9332 37.3333 50.9332 40C50.9332 40.4 50.9332 40.8 50.7998 41.2C50.6665 41.8666 51.1998 42.5333 51.9998 42.6666H52.1332C52.7998 42.6666 53.3332 42.1333 53.4665 41.4666C53.4665 40.9333 53.5998 40.5333 53.5998 40C53.5998 36.8 52.3998 33.7333 50.3998 31.3333H51.9998ZM51.0665 46L50.6665 45.6C50.5332 45.4666 50.3998 45.4666 50.2665 45.4666H44.6665C43.8665 45.4666 43.3332 46 43.3332 46.8C43.3332 47.6 43.8665 48.1333 44.6665 48.1333H47.0665C45.1998 49.8666 42.6665 50.8 39.9998 50.8C39.5998 50.8 39.1998 50.8 38.7998 50.6666C38.1332 50.5333 37.4665 51.0666 37.3332 51.8666C37.1998 52.6666 37.7332 53.2 38.5332 53.3333C39.0665 53.3333 39.4665 53.4666 39.9998 53.4666C43.1998 53.4666 46.2665 52.2666 48.6665 50.2666V52C48.6665 52.8 49.1998 53.3333 49.9998 53.3333C50.7998 53.3333 51.3332 52.8 51.3332 52V46.6666C51.3332 46.4 51.1998 46.1333 51.0665 46Z" fill="#00A3A3"/>
</svg>
