<svg width="40" height="41" viewBox="0 0 40 41" fill="none" xmlns="http://www.w3.org/2000/svg">
<path d="M20 22.5249C22.7614 22.5249 25 20.2863 25 17.5249C25 14.7635 22.7614 12.5249 20 12.5249C17.2386 12.5249 15 14.7635 15 17.5249C15 20.2863 17.2386 22.5249 20 22.5249Z" stroke="white" stroke-width="3.33333" stroke-linecap="round" stroke-linejoin="round"/>
<path d="M19.9998 4.19165C16.4636 4.19165 13.0722 5.59641 10.5717 8.09689C8.07126 10.5974 6.6665 13.9888 6.6665 17.525C6.6665 20.6783 7.3365 22.7416 9.1665 25.025L19.9998 37.525L30.8332 25.025C32.6632 22.7416 33.3332 20.6783 33.3332 17.525C33.3332 13.9888 31.9284 10.5974 29.4279 8.09689C26.9274 5.59641 23.5361 4.19165 19.9998 4.19165V4.19165Z" stroke="white" stroke-width="3.33333" stroke-linecap="round" stroke-linejoin="round"/>
</svg>
